<svg width="39" height="39" viewBox="0 0 39 39" fill="none" xmlns="http://www.w3.org/2000/svg">
<circle cx="19.8016" cy="19.7996" r="18.2" fill="#D0DEEF" stroke="white" stroke-width="2"/>
<path fill-rule="evenodd" clip-rule="evenodd" d="M26.668 14.1667H24.0263L22.993 13.0417C22.6846 12.7 22.2346 12.5 21.768 12.5H18.2346C17.768 12.5 17.318 12.7 17.0013 13.0417L15.9763 14.1667H13.3346C12.418 14.1667 11.668 14.9167 11.668 15.8333V25.8333C11.668 26.75 12.418 27.5 13.3346 27.5H26.668C27.5846 27.5 28.3346 26.75 28.3346 25.8333V15.8333C28.3346 14.9167 27.5846 14.1667 26.668 14.1667ZM20.0013 18.3333C18.6206 18.3333 17.5013 19.4526 17.5013 20.8333C17.5013 22.214 18.6206 23.3333 20.0013 23.3333C21.382 23.3333 22.5013 22.214 22.5013 20.8333C22.5013 19.4526 21.382 18.3333 20.0013 18.3333ZM15.8346 20.8333C15.8346 23.1333 17.7013 25 20.0013 25C22.3013 25 24.168 23.1333 24.168 20.8333C24.168 18.5333 22.3013 16.6667 20.0013 16.6667C17.7013 16.6667 15.8346 18.5333 15.8346 20.8333Z" fill="#5468FF"/>
</svg>

