<svg xmlns="http://www.w3.org/2000/svg" width="25" height="24" viewBox="0 0 25 24" fill="none">
<path d="M6.882 5.968C8.47575 4.69107 10.4578 3.99674 12.5 4C14.625 4 16.578 4.736 18.118 5.968L19.571 4.515L20.985 5.929L19.532 7.382C20.5897 8.70615 21.2521 10.302 21.4428 11.986C21.6336 13.6699 21.345 15.3735 20.6103 16.9007C19.8756 18.4279 18.7246 19.7167 17.2898 20.6186C15.855 21.5205 14.1947 21.999 12.5 21.999C10.8053 21.999 9.14498 21.5205 7.7102 20.6186C6.27541 19.7167 5.12443 18.4279 4.38973 16.9007C3.65502 15.3735 3.36644 13.6699 3.5572 11.986C3.74796 10.302 4.4103 8.70615 5.46801 7.382L4.01501 5.93L5.42901 4.516L6.882 5.969V5.968ZM12.5 20C13.4193 20 14.3295 19.8189 15.1788 19.4672C16.0281 19.1154 16.7997 18.5998 17.4498 17.9497C18.0998 17.2997 18.6154 16.5281 18.9672 15.6788C19.3189 14.8295 19.5 13.9193 19.5 13C19.5 12.0807 19.3189 11.1705 18.9672 10.3212C18.6154 9.47194 18.0998 8.70026 17.4498 8.05025C16.7997 7.40024 16.0281 6.88463 15.1788 6.53284C14.3295 6.18106 13.4193 6 12.5 6C10.6435 6 8.86301 6.7375 7.55026 8.05025C6.2375 9.36301 5.50001 11.1435 5.50001 13C5.50001 14.8565 6.2375 16.637 7.55026 17.9497C8.86301 19.2625 10.6435 20 12.5 20ZM13.5 12H16.5L11.5 18.5V14H8.50001L13.5 7.495V12ZM8.50001 1H16.5V3H8.50001V1Z" fill="#12B76A"/>
</svg>