<svg xmlns="http://www.w3.org/2000/svg" width="25" height="24" viewBox="0 0 25 24" fill="none">
<path d="M19.15 2.84994L19.76 6.70994L23.27 8.49994L21.5 11.9999L23.28 15.4999L19.74 17.2899L19.13 21.1499L15.24 20.5399L12.47 23.2999L9.68997 20.4999L5.82997 21.1399L5.20997 17.2499L1.71997 15.4699L3.49997 11.9699L1.72997 8.49994L5.23997 6.68994L5.84997 2.85994L9.71997 3.49994L12.5 0.689941L15.27 3.45994L19.15 2.84994ZM9.99997 6.99994C9.60215 6.99994 9.22061 7.15798 8.93931 7.43928C8.65801 7.72059 8.49997 8.10212 8.49997 8.49994C8.49997 8.89777 8.65801 9.2793 8.93931 9.5606C9.22061 9.84191 9.60215 9.99994 9.99997 9.99994C10.3978 9.99994 10.7793 9.84191 11.0606 9.5606C11.3419 9.2793 11.5 8.89777 11.5 8.49994C11.5 8.10212 11.3419 7.72059 11.0606 7.43928C10.7793 7.15798 10.3978 6.99994 9.99997 6.99994ZM15 13.9999C14.6021 13.9999 14.2206 14.158 13.9393 14.4393C13.658 14.7206 13.5 15.1021 13.5 15.4999C13.5 15.8978 13.658 16.2793 13.9393 16.5606C14.2206 16.8419 14.6021 16.9999 15 16.9999C15.3978 16.9999 15.7793 16.8419 16.0606 16.5606C16.3419 16.2793 16.5 15.8978 16.5 15.4999C16.5 15.1021 16.3419 14.7206 16.0606 14.4393C15.7793 14.158 15.3978 13.9999 15 13.9999ZM8.90997 16.9999L17.5 8.40994L16.09 6.99994L7.49997 15.5899L8.90997 16.9999Z" fill="white"/>
</svg>